<svg id="レイヤー_1" data-name="レイヤー 1" xmlns="http://www.w3.org/2000/svg" viewBox="0 0 574 164"><defs><style>.cls-1{fill:#424242;}.cls-2{fill:#00e676;}</style></defs><title>logo</title><path d="M233.48,43.26a34.94,34.94,0,0,0-18.09-4.73c-14.31,0-19.71,8.78-19.71,16.2,0,10.13,6.21,15.26,20,21.06,16.61,7,25.11,15.52,25.11,30.24,0,16.33-11.88,28.89-34,28.89-9.31,0-19.44-2.84-24.57-6.48l3.11-9.32a41.89,41.89,0,0,0,22.14,6.35c13.77,0,21.86-7.43,21.86-18.5,0-10.12-5.53-16.33-18.89-21.73-15.53-5.81-26.06-14.85-26.06-29,0-15.66,12.69-27.14,31.46-27.14,9.72,0,17.14,2.43,21,4.86Z"/><path d="M263.86,46.9c-4.32,0-7.29-3.37-7.29-7.69A7.34,7.34,0,0,1,264,31.65c4.46,0,7.29,3.37,7.29,7.56C271.28,43.93,268.17,46.9,263.86,46.9Zm5.67,86.53H258.32V59.86h11.21Z"/><path d="M326.22,71.06a26.38,26.38,0,0,0-14.31-4.31c-8.1,0-12.42,5-12.42,10.93,0,6.34,4.19,9.32,13.64,13.36,11.88,4.86,18.76,11.07,18.76,22.14,0,13.1-10,21.74-26.05,21.74a39,39,0,0,1-19.31-5l3.11-8.64c3.91,2.3,10.26,5,16.6,5,9.86,0,14.72-5.27,14.72-11.88,0-6.89-3.92-10.67-13.64-14.58-12.42-5-18.76-11.88-18.76-20.79,0-11.47,9.18-20.92,24-20.92a32.55,32.55,0,0,1,16.87,4.45Z"/><path d="M352,46.5l11.07-3.78V59.86h19v8.78h-19v42.52c0,9.31,2.83,14.44,10,14.44a21.8,21.8,0,0,0,7.56-1.08l.67,8.64c-2.43,1.08-6.21,1.76-10.93,1.76-17.82,0-18.36-16.2-18.36-24V68.64H340.67V59.86H352Z"/><path d="M448.94,130.33c-4.19,2-11.88,4.59-23.09,4.59-21.46,0-34.29-15.12-34.29-37.13,0-23.08,13-39.68,32.81-39.68,22.67,0,28.48,20.79,28.48,33.61,0,2.56-.14,4.45-.27,6.21H402.5c.13,20.38,11.74,28.08,25,28.08a46.52,46.52,0,0,0,19.31-3.78Zm-7.16-40.77c.14-10-4-23-18.49-23-13.5,0-19.44,12.82-20.52,23Z"/><path d="M503.2,69.31a34.82,34.82,0,0,0-4.05-.27c-12.15,0-18.36,12-18.36,24.43v40h-11.2V81.86c0-7.82-.13-15-.54-22h9.85L479.44,74h.41c3.24-9.18,10.93-15.8,20-15.8a27.67,27.67,0,0,1,3.37.41Z"/><path d="M550.72,71.06a26.38,26.38,0,0,0-14.31-4.31c-8.1,0-12.42,5-12.42,10.93C524,84,528.18,87,537.63,91c11.88,4.86,18.76,11.07,18.76,22.14,0,13.1-10,21.74-26,21.74a39,39,0,0,1-19.31-5l3.11-8.64c3.91,2.3,10.26,5,16.6,5,9.86,0,14.72-5.27,14.72-11.88,0-6.89-3.92-10.67-13.64-14.58-12.42-5-18.76-11.88-18.76-20.79,0-11.47,9.18-20.92,24-20.92A32.55,32.55,0,0,1,554,62.56Z"/><circle class="cls-1" cx="87.61" cy="82" r="70"/><path class="cls-2" d="M87.11,30h0a52,52,0,0,0-52,52h0a52,52,0,0,0,52,52h0a52,52,0,0,0,52-52h0A52,52,0,0,0,87.11,30Z"/><polygon class="cls-1" points="56.25 112.85 87.11 112.85 87.11 82 56.25 112.85"/><polygon class="cls-1" points="87.11 82 87.11 51.15 117.96 51.15 87.11 82"/></svg>