<svg id="レイヤー_1" data-name="レイヤー 1" xmlns="http://www.w3.org/2000/svg" width="439" height="122" viewBox="0 0 439 122">
  <defs>
    <style>
      .cls-1 {
        fill: #424242;
      }

      .cls-2 {
        fill: #00e676;
      }
    </style>
  </defs>
  <title>Sisters</title>
  <g>
    <g>
      <circle class="cls-1" cx="88.46" cy="61" r="50"/>
      <path class="cls-2" d="M88.11,23.86h0A37.14,37.14,0,0,0,51,61h0A37.14,37.14,0,0,0,88.11,98.14h0A37.14,37.14,0,0,0,125.25,61h0A37.14,37.14,0,0,0,88.11,23.86Z"/>
      <g>
        <polygon class="cls-1" points="66.07 83.04 88.11 83.04 88.11 61 66.07 83.04"/>
        <polygon class="cls-1" points="88.11 61 88.11 38.96 110.14 38.96 88.11 61"/>
      </g>
    </g>
    <g>
      <path class="cls-1" d="M171.5,71.15c.36,4,2.88,6.77,8.06,6.77,4.11,0,6.56-1.44,6.56-5,0-3.17-2.31-4.75-8.14-6.7-10.59-3.45-14.76-7.56-14.76-14.18,0-9,6.62-15.91,19.94-15.91,12.1,0,19.59,5.61,19.73,15.26H189.43c-.15-2.23-1.08-5.47-6.48-5.47-3.31,0-5.69,1.37-5.69,4.39,0,2.31,1.8,3.82,7.63,5.69,11.09,3.6,15.7,8,15.7,15.27,0,9.43-6.91,16.34-21.89,16.34-13.61,0-20.38-6.41-20.67-16.42Z"/>
      <path class="cls-1" d="M211.24,48.9h13.32l-8,37.73H203.25Zm3-14.47h13.32l-2,9.79H212.18Z"/>
      <path class="cls-1" d="M237.31,74.75c.21,2.67,2,4,5,4s4.32-1.15,4.32-3.16c0-1.8-1.66-2.67-5.84-3.89-9.72-2.74-12.52-5.91-12.52-10.88,0-7,5.54-12.74,16.77-12.74,11.52,0,16.64,5.33,16.42,11.88H249.19c0-2.09-1.16-3.6-4.4-3.6-1.8,0-3.67.58-3.67,2.52,0,1.66,1.8,2.3,6.7,3.74,9,2.67,11.95,6.34,11.95,11.52,0,9.44-8.64,13.33-18.22,13.33-10.94,0-16.92-4.61-16.7-12.68Z"/>
      <path class="cls-1" d="M267.69,48.9h5.18l2.23-9.79h13l-2,9.79h6.34L290.51,58h-6.4l-3.46,16.41c-.5,2.31-.14,3.53,2.66,3.53a19.71,19.71,0,0,0,2.81-.21l-1.8,8.64a31.27,31.27,0,0,1-8.06.79c-9.15,0-10.52-4.83-9.08-12L270.86,58h-5.19Z"/>
      <path class="cls-1" d="M306.21,70.5a8.76,8.76,0,0,0-.22,2c-.14,3.31.87,6,4.32,6,3,0,4.4-1.73,5.4-3.89h13.4c-2.23,6.55-8.07,12.82-19.73,12.82-12,0-16.71-7.06-16.71-15.85,0-9.64,5.47-23.54,21.68-23.54,11.95,0,16.77,6.55,16.77,15.26A25.52,25.52,0,0,1,330,70.5Zm12.1-7.34a8.81,8.81,0,0,0,.14-1.8c0-2.52-.94-4.61-4.18-4.61-3.45,0-5.47,2.31-6.55,6.41Z"/>
      <path class="cls-1" d="M362.73,60.64c-7.85-.36-11.38,2.88-13,10.66l-3.24,15.33H333.14l5.47-25.92c1-4.75,1.73-8.57,2.3-11.81h13a58.58,58.58,0,0,1-1,6.34c2.44-4.25,5.68-7.13,12.6-7.13Z"/>
      <path class="cls-1" d="M376.34,74.75c.21,2.67,2,4,5,4s4.32-1.15,4.32-3.16c0-1.8-1.66-2.67-5.84-3.89-9.72-2.74-12.52-5.91-12.52-10.88,0-7,5.54-12.74,16.77-12.74,11.52,0,16.64,5.33,16.42,11.88H388.22c0-2.09-1.16-3.6-4.4-3.6-1.8,0-3.67.58-3.67,2.52,0,1.66,1.8,2.3,6.7,3.74,9,2.67,11.95,6.34,11.95,11.52,0,9.44-8.64,13.33-18.22,13.33-10.94,0-16.92-4.61-16.7-12.68Z"/>
    </g>
  </g>
</svg>
